<mxfile host="Electron" modified="2024-02-27T17:30:43.666Z" agent="Mozilla/5.0 (X11; Linux x86_64) AppleWebKit/537.36 (KHTML, like Gecko) draw.io/23.1.5 Chrome/120.0.6099.109 Electron/28.1.0 Safari/537.36" etag="EZpt0wFgm_kVHtbsL3NZ" version="23.1.5" type="device">
  <diagram name="Boards" id="d6m3hvuM0N_5yRi7-RBz">
    <mxGraphModel dx="1114" dy="714" grid="1" gridSize="10" guides="1" tooltips="1" connect="1" arrows="1" fold="1" page="1" pageScale="1" pageWidth="850" pageHeight="1100" math="0" shadow="0">
      <root>
        <mxCell id="0" />
        <mxCell id="1" parent="0" />
        <mxCell id="b8Ejo3GVHlCG0hbeT8ZQ-8" value="I2C" style="edgeStyle=orthogonalEdgeStyle;rounded=0;orthogonalLoop=1;jettySize=auto;html=1;exitX=1;exitY=0.5;exitDx=0;exitDy=0;entryX=0;entryY=0.5;entryDx=0;entryDy=0;endArrow=none;endFill=0;" edge="1" parent="1" source="b8Ejo3GVHlCG0hbeT8ZQ-1" target="b8Ejo3GVHlCG0hbeT8ZQ-2">
          <mxGeometry relative="1" as="geometry" />
        </mxCell>
        <mxCell id="b8Ejo3GVHlCG0hbeT8ZQ-1" value="Raspberry PI" style="rounded=0;whiteSpace=wrap;html=1;" vertex="1" parent="1">
          <mxGeometry x="110" y="280" width="120" height="80" as="geometry" />
        </mxCell>
        <mxCell id="b8Ejo3GVHlCG0hbeT8ZQ-9" value="UART + 5V" style="edgeStyle=orthogonalEdgeStyle;rounded=0;orthogonalLoop=1;jettySize=auto;html=1;exitX=1;exitY=0.5;exitDx=0;exitDy=0;entryX=0;entryY=0.5;entryDx=0;entryDy=0;strokeColor=default;align=center;verticalAlign=middle;fontFamily=Helvetica;fontSize=11;fontColor=default;labelBackgroundColor=default;endArrow=none;endFill=0;" edge="1" parent="1" source="b8Ejo3GVHlCG0hbeT8ZQ-2" target="b8Ejo3GVHlCG0hbeT8ZQ-3">
          <mxGeometry relative="1" as="geometry" />
        </mxCell>
        <mxCell id="b8Ejo3GVHlCG0hbeT8ZQ-12" value="GPIO" style="edgeStyle=orthogonalEdgeStyle;rounded=0;orthogonalLoop=1;jettySize=auto;html=1;exitX=0.5;exitY=0;exitDx=0;exitDy=0;entryX=0.5;entryY=1;entryDx=0;entryDy=0;strokeColor=default;align=center;verticalAlign=middle;fontFamily=Helvetica;fontSize=11;fontColor=default;labelBackgroundColor=default;endArrow=none;endFill=0;" edge="1" parent="1" source="b8Ejo3GVHlCG0hbeT8ZQ-2" target="b8Ejo3GVHlCG0hbeT8ZQ-7">
          <mxGeometry relative="1" as="geometry" />
        </mxCell>
        <mxCell id="b8Ejo3GVHlCG0hbeT8ZQ-2" value="Keypad Controller" style="rounded=0;whiteSpace=wrap;html=1;" vertex="1" parent="1">
          <mxGeometry x="360" y="280" width="120" height="80" as="geometry" />
        </mxCell>
        <mxCell id="b8Ejo3GVHlCG0hbeT8ZQ-10" value="I2C + 5V" style="edgeStyle=orthogonalEdgeStyle;rounded=0;orthogonalLoop=1;jettySize=auto;html=1;exitX=0.5;exitY=1;exitDx=0;exitDy=0;entryX=0.5;entryY=0;entryDx=0;entryDy=0;strokeColor=default;align=center;verticalAlign=middle;fontFamily=Helvetica;fontSize=11;fontColor=default;labelBackgroundColor=default;endArrow=none;endFill=0;" edge="1" parent="1" source="b8Ejo3GVHlCG0hbeT8ZQ-3" target="b8Ejo3GVHlCG0hbeT8ZQ-4">
          <mxGeometry relative="1" as="geometry" />
        </mxCell>
        <mxCell id="b8Ejo3GVHlCG0hbeT8ZQ-19" value="3x Relais" style="edgeStyle=orthogonalEdgeStyle;rounded=0;orthogonalLoop=1;jettySize=auto;html=1;exitX=1;exitY=0.75;exitDx=0;exitDy=0;entryX=0;entryY=0.5;entryDx=0;entryDy=0;strokeColor=default;align=center;verticalAlign=middle;fontFamily=Helvetica;fontSize=11;fontColor=default;labelBackgroundColor=default;endArrow=none;endFill=0;" edge="1" parent="1" source="b8Ejo3GVHlCG0hbeT8ZQ-3" target="b8Ejo3GVHlCG0hbeT8ZQ-15">
          <mxGeometry relative="1" as="geometry" />
        </mxCell>
        <mxCell id="b8Ejo3GVHlCG0hbeT8ZQ-20" value="12V H-Bridge" style="edgeStyle=orthogonalEdgeStyle;rounded=0;orthogonalLoop=1;jettySize=auto;html=1;exitX=1;exitY=0.25;exitDx=0;exitDy=0;entryX=0;entryY=0.5;entryDx=0;entryDy=0;strokeColor=default;align=center;verticalAlign=middle;fontFamily=Helvetica;fontSize=11;fontColor=default;labelBackgroundColor=default;endArrow=none;endFill=0;" edge="1" parent="1" source="b8Ejo3GVHlCG0hbeT8ZQ-3" target="b8Ejo3GVHlCG0hbeT8ZQ-16">
          <mxGeometry relative="1" as="geometry" />
        </mxCell>
        <mxCell id="b8Ejo3GVHlCG0hbeT8ZQ-21" value="3x 5V&amp;nbsp; PWM" style="edgeStyle=orthogonalEdgeStyle;rounded=0;orthogonalLoop=1;jettySize=auto;html=1;exitX=0.75;exitY=0;exitDx=0;exitDy=0;entryX=0.5;entryY=1;entryDx=0;entryDy=0;strokeColor=default;align=center;verticalAlign=middle;fontFamily=Helvetica;fontSize=11;fontColor=default;labelBackgroundColor=default;endArrow=none;endFill=0;" edge="1" parent="1" source="b8Ejo3GVHlCG0hbeT8ZQ-3" target="b8Ejo3GVHlCG0hbeT8ZQ-18">
          <mxGeometry x="0.3043" y="-10" relative="1" as="geometry">
            <mxPoint x="-10" y="10" as="offset" />
          </mxGeometry>
        </mxCell>
        <mxCell id="b8Ejo3GVHlCG0hbeT8ZQ-22" value="12V" style="edgeStyle=orthogonalEdgeStyle;rounded=0;orthogonalLoop=1;jettySize=auto;html=1;exitX=0.25;exitY=0;exitDx=0;exitDy=0;entryX=0.5;entryY=1;entryDx=0;entryDy=0;strokeColor=default;align=center;verticalAlign=middle;fontFamily=Helvetica;fontSize=11;fontColor=default;labelBackgroundColor=default;endArrow=none;endFill=0;" edge="1" parent="1" source="b8Ejo3GVHlCG0hbeT8ZQ-3" target="b8Ejo3GVHlCG0hbeT8ZQ-17">
          <mxGeometry relative="1" as="geometry" />
        </mxCell>
        <mxCell id="b8Ejo3GVHlCG0hbeT8ZQ-3" value="FancyControl" style="rounded=0;whiteSpace=wrap;html=1;" vertex="1" parent="1">
          <mxGeometry x="600" y="280" width="120" height="80" as="geometry" />
        </mxCell>
        <mxCell id="b8Ejo3GVHlCG0hbeT8ZQ-11" value="RS232" style="edgeStyle=orthogonalEdgeStyle;rounded=0;orthogonalLoop=1;jettySize=auto;html=1;exitX=0.5;exitY=1;exitDx=0;exitDy=0;entryX=0.5;entryY=0;entryDx=0;entryDy=0;strokeColor=default;align=center;verticalAlign=middle;fontFamily=Helvetica;fontSize=11;fontColor=default;labelBackgroundColor=default;endArrow=none;endFill=0;" edge="1" parent="1" source="b8Ejo3GVHlCG0hbeT8ZQ-4" target="b8Ejo3GVHlCG0hbeT8ZQ-6">
          <mxGeometry relative="1" as="geometry" />
        </mxCell>
        <mxCell id="b8Ejo3GVHlCG0hbeT8ZQ-4" value="Projector Controller" style="rounded=0;whiteSpace=wrap;html=1;" vertex="1" parent="1">
          <mxGeometry x="600" y="440" width="120" height="60" as="geometry" />
        </mxCell>
        <mxCell id="b8Ejo3GVHlCG0hbeT8ZQ-6" value="Projector" style="rounded=0;whiteSpace=wrap;html=1;" vertex="1" parent="1">
          <mxGeometry x="600" y="560" width="120" height="60" as="geometry" />
        </mxCell>
        <mxCell id="b8Ejo3GVHlCG0hbeT8ZQ-7" value="Keypad&lt;br&gt;4 x 4" style="rounded=0;whiteSpace=wrap;html=1;" vertex="1" parent="1">
          <mxGeometry x="360" y="120" width="120" height="100" as="geometry" />
        </mxCell>
        <mxCell id="b8Ejo3GVHlCG0hbeT8ZQ-14" value="GPIO" style="edgeStyle=orthogonalEdgeStyle;rounded=0;orthogonalLoop=1;jettySize=auto;html=1;exitX=0.5;exitY=0;exitDx=0;exitDy=0;entryX=0.5;entryY=1;entryDx=0;entryDy=0;strokeColor=default;align=center;verticalAlign=middle;fontFamily=Helvetica;fontSize=11;fontColor=default;labelBackgroundColor=default;endArrow=none;endFill=0;" edge="1" parent="1" source="b8Ejo3GVHlCG0hbeT8ZQ-13" target="b8Ejo3GVHlCG0hbeT8ZQ-2">
          <mxGeometry relative="1" as="geometry" />
        </mxCell>
        <mxCell id="b8Ejo3GVHlCG0hbeT8ZQ-13" value="Light Switch" style="rounded=0;whiteSpace=wrap;html=1;fontFamily=Helvetica;fontSize=11;fontColor=default;labelBackgroundColor=default;" vertex="1" parent="1">
          <mxGeometry x="382.5" y="420" width="75" height="40" as="geometry" />
        </mxCell>
        <mxCell id="b8Ejo3GVHlCG0hbeT8ZQ-15" value="Screen Motor Controller" style="rounded=0;whiteSpace=wrap;html=1;fontFamily=Helvetica;fontSize=11;fontColor=default;labelBackgroundColor=default;" vertex="1" parent="1">
          <mxGeometry x="830" y="330" width="80" height="60" as="geometry" />
        </mxCell>
        <mxCell id="b8Ejo3GVHlCG0hbeT8ZQ-16" value="Projector Lift Motor" style="rounded=0;whiteSpace=wrap;html=1;fontFamily=Helvetica;fontSize=11;fontColor=default;labelBackgroundColor=default;" vertex="1" parent="1">
          <mxGeometry x="830" y="250" width="80" height="60" as="geometry" />
        </mxCell>
        <mxCell id="b8Ejo3GVHlCG0hbeT8ZQ-17" value="12V LED Lamps" style="rounded=0;whiteSpace=wrap;html=1;fontFamily=Helvetica;fontSize=11;fontColor=default;labelBackgroundColor=default;" vertex="1" parent="1">
          <mxGeometry x="570" y="140" width="70" height="60" as="geometry" />
        </mxCell>
        <mxCell id="b8Ejo3GVHlCG0hbeT8ZQ-18" value="RGB LED Strip" style="rounded=0;whiteSpace=wrap;html=1;fontFamily=Helvetica;fontSize=11;fontColor=default;labelBackgroundColor=default;" vertex="1" parent="1">
          <mxGeometry x="690" y="140" width="70" height="60" as="geometry" />
        </mxCell>
      </root>
    </mxGraphModel>
  </diagram>
</mxfile>
